<svg width="656" height="656" viewBox="0 0 656 656" fill="none" xmlns="http://www.w3.org/2000/svg">
<path d="M229.927 97.7241C231.052 96.5989 232.578 95.9667 234.17 95.9667L421.132 95.9668C422.724 95.9668 424.25 96.5989 425.375 97.7241L557.578 229.927C558.703 231.052 559.335 232.578 559.335 234.17L559.335 421.132C559.335 422.724 558.703 424.25 557.578 425.375L425.375 557.578C424.25 558.703 422.724 559.335 421.132 559.335L234.17 559.335C232.578 559.335 231.052 558.703 229.927 557.578L97.7241 425.375C96.5989 424.25 95.9668 422.724 95.9668 421.132L95.9668 234.17C95.9668 232.578 96.5989 231.052 97.7241 229.927L229.927 97.7241Z" fill="url(#paint0_linear_2_30)"/>
<path d="M237.048 112.214L413.59 112.214L538.423 237.048L538.423 413.59L413.59 538.423L237.048 538.423L112.214 413.59L112.214 237.048L237.048 112.214Z" fill="url(#paint1_linear_2_30)"/>
<g filter="url(#filter0_d_2_30)">
<rect x="209.29" y="140.666" width="2.99289" height="92.7796" rx="1.49644" transform="rotate(45.0231 209.29 140.666)" fill="#D9D9D9"/>
</g>
<g filter="url(#filter1_d_2_30)">
<rect width="2.99289" height="92.7796" rx="1.49644" transform="matrix(-0.706821 0.707392 0.707392 0.706821 439.077 137.673)" fill="#D9D9D9"/>
</g>
<g filter="url(#filter2_d_2_30)">
<rect width="2.99289" height="92.7796" rx="1.49644" transform="matrix(0.706821 -0.707392 -0.707392 -0.706821 203.304 507.65)" fill="#D9D9D9"/>
</g>
<path d="M245.567 131.521L406.852 131.521L520.897 245.567L520.897 406.852L406.852 520.897L245.567 520.897L131.521 406.852L131.521 245.567L245.567 131.521Z" fill="url(#paint2_linear_2_30)"/>
<g filter="url(#filter3_i_2_30)">
<path d="M251.674 144.57L403.141 144.57L510.244 251.674L510.244 403.141L403.141 510.244L251.674 510.244L144.57 403.141L144.57 251.674L251.674 144.57Z" fill="url(#paint3_linear_2_30)"/>
</g>
<g filter="url(#filter4_d_2_30)">
<rect x="445.063" y="507.65" width="2.99289" height="92.7796" rx="1.49644" transform="rotate(-134.977 445.063 507.65)" fill="#D9D9D9"/>
</g>
<defs>
<filter id="filter0_d_2_30" x="140.278" y="137.286" width="74.5073" height="74.456" filterUnits="userSpaceOnUse" color-interpolation-filters="sRGB">
<feFlood flood-opacity="0" result="BackgroundImageFix"/>
<feColorMatrix in="SourceAlpha" type="matrix" values="0 0 0 0 0 0 0 0 0 0 0 0 0 0 0 0 0 0 127 0" result="hardAlpha"/>
<feOffset/>
<feGaussianBlur stdDeviation="2"/>
<feComposite in2="hardAlpha" operator="out"/>
<feColorMatrix type="matrix" values="0 0 0 0 1 0 0 0 0 1 0 0 0 0 1 0 0 0 1 0"/>
<feBlend mode="normal" in2="BackgroundImageFix" result="effect1_dropShadow_2_30"/>
<feBlend mode="normal" in="SourceGraphic" in2="effect1_dropShadow_2_30" result="shape"/>
</filter>
<filter id="filter1_d_2_30" x="433.582" y="134.293" width="74.5073" height="74.456" filterUnits="userSpaceOnUse" color-interpolation-filters="sRGB">
<feFlood flood-opacity="0" result="BackgroundImageFix"/>
<feColorMatrix in="SourceAlpha" type="matrix" values="0 0 0 0 0 0 0 0 0 0 0 0 0 0 0 0 0 0 127 0" result="hardAlpha"/>
<feOffset/>
<feGaussianBlur stdDeviation="2"/>
<feComposite in2="hardAlpha" operator="out"/>
<feColorMatrix type="matrix" values="0 0 0 0 1 0 0 0 0 1 0 0 0 0 1 0 0 0 1 0"/>
<feBlend mode="normal" in2="BackgroundImageFix" result="effect1_dropShadow_2_30"/>
<feBlend mode="normal" in="SourceGraphic" in2="effect1_dropShadow_2_30" result="shape"/>
</filter>
<filter id="filter2_d_2_30" x="134.293" y="436.574" width="74.5073" height="74.456" filterUnits="userSpaceOnUse" color-interpolation-filters="sRGB">
<feFlood flood-opacity="0" result="BackgroundImageFix"/>
<feColorMatrix in="SourceAlpha" type="matrix" values="0 0 0 0 0 0 0 0 0 0 0 0 0 0 0 0 0 0 127 0" result="hardAlpha"/>
<feOffset/>
<feGaussianBlur stdDeviation="2"/>
<feComposite in2="hardAlpha" operator="out"/>
<feColorMatrix type="matrix" values="0 0 0 0 1 0 0 0 0 1 0 0 0 0 1 0 0 0 1 0"/>
<feBlend mode="normal" in2="BackgroundImageFix" result="effect1_dropShadow_2_30"/>
<feBlend mode="normal" in="SourceGraphic" in2="effect1_dropShadow_2_30" result="shape"/>
</filter>
<filter id="filter3_i_2_30" x="144.57" y="144.57" width="365.674" height="365.674" filterUnits="userSpaceOnUse" color-interpolation-filters="sRGB">
<feFlood flood-opacity="0" result="BackgroundImageFix"/>
<feBlend mode="normal" in="SourceGraphic" in2="BackgroundImageFix" result="shape"/>
<feColorMatrix in="SourceAlpha" type="matrix" values="0 0 0 0 0 0 0 0 0 0 0 0 0 0 0 0 0 0 127 0" result="hardAlpha"/>
<feOffset/>
<feGaussianBlur stdDeviation="6.65"/>
<feComposite in2="hardAlpha" operator="arithmetic" k2="-1" k3="1"/>
<feColorMatrix type="matrix" values="0 0 0 0 0.2 0 0 0 0 0.2 0 0 0 0 0.2 0 0 0 1 0"/>
<feBlend mode="normal" in2="shape" result="effect1_innerShadow_2_30"/>
</filter>
<filter id="filter4_d_2_30" x="439.568" y="436.574" width="74.5073" height="74.456" filterUnits="userSpaceOnUse" color-interpolation-filters="sRGB">
<feFlood flood-opacity="0" result="BackgroundImageFix"/>
<feColorMatrix in="SourceAlpha" type="matrix" values="0 0 0 0 0 0 0 0 0 0 0 0 0 0 0 0 0 0 127 0" result="hardAlpha"/>
<feOffset/>
<feGaussianBlur stdDeviation="2"/>
<feComposite in2="hardAlpha" operator="out"/>
<feColorMatrix type="matrix" values="0 0 0 0 1 0 0 0 0 1 0 0 0 0 1 0 0 0 1 0"/>
<feBlend mode="normal" in2="BackgroundImageFix" result="effect1_dropShadow_2_30"/>
<feBlend mode="normal" in="SourceGraphic" in2="effect1_dropShadow_2_30" result="shape"/>
</filter>
<linearGradient id="paint0_linear_2_30" x1="326.225" y1="98.7653" x2="326.225" y2="573.138" gradientUnits="userSpaceOnUse">
<stop stop-color="#222222"/>
<stop offset="1" stop-color="#111111" stop-opacity="0.533333"/>
</linearGradient>
<linearGradient id="paint1_linear_2_30" x1="324.007" y1="114.788" x2="324.007" y2="551.12" gradientUnits="userSpaceOnUse">
<stop stop-color="#111111"/>
<stop offset="1" stop-color="#111111" stop-opacity="0.533333"/>
</linearGradient>
<linearGradient id="paint2_linear_2_30" x1="325.011" y1="133.873" x2="325.011" y2="532.496" gradientUnits="userSpaceOnUse">
<stop stop-color="#222222"/>
<stop offset="1" stop-color="#111111" stop-opacity="0.533333"/>
</linearGradient>
<linearGradient id="paint3_linear_2_30" x1="326.282" y1="146.779" x2="326.282" y2="521.137" gradientUnits="userSpaceOnUse">
<stop stop-color="#222222"/>
<stop offset="1" stop-color="#111111" stop-opacity="0.533333"/>
</linearGradient>
</defs>
</svg>
